<svg id="Layer_1" data-name="Layer 1" xmlns="http://www.w3.org/2000/svg" viewBox="0 0 144.44 138.64"><defs><style>.cls-1{fill:#ffa0ba;}.cls-2{fill:#fe739c;}</style></defs><path class="cls-1" d="M76.19,17.05s22.1-29,45.21-11.38,0,50,0,50S150,68.77,143.47,92.22s-35.87,17.24-43.8,10c0,0-3.79,39.65-31.38,36.2s-26.2-34.13-24.13-43.79c0,0-30.35,7.93-41.38-9s13.44-37.93,27.58-40c0,0-16.55-25.87,0-39.31S67.72,8.58,76.19,17.05Z"/><path class="cls-2" d="M88.8,73.19c-6.19,9.61-18.4,12.77-27.27,7s-8.84-18-2.64-27.61,19.49-12.71,28.36-7S95,63.58,88.8,73.19Z"/></svg>